<?xml version="1.0" standalone="no"?><!-- Generator: Gravit.io --><svg xmlns="http://www.w3.org/2000/svg" xmlns:xlink="http://www.w3.org/1999/xlink" style="isolation:isolate" viewBox="18.5 50.945 63 66.555" width="63" height="66.555"><g id="Group"/><g id="Group"><path d=" M 79.28 50.945 L 79.235 60.454 L 64.697 62.993 L 64.666 97.347 L 53.969 99.215 L 54 64.861 L 39.402 67.41 L 39.447 57.901 L 79.28 50.945 Z " fill="rgb(255,255,255)"/><path d=" M 19.099 61.282 L 36.238 58.289 L 36.238 58.289 Q 42.975 57.113 46.328 59.572 L 46.328 59.572 L 46.328 59.572 Q 48.848 61.447 49.446 64.874 L 49.446 64.874 L 49.446 64.874 Q 49.653 66.056 49.643 67.398 L 49.643 67.398 L 49.607 70.327 L 49.607 70.327 Q 49.545 73.81 48.014 76.026 L 48.014 76.026 L 48.014 76.026 Q 46.482 78.242 45.064 78.49 L 45.064 78.49 L 45.087 78.973 L 45.087 78.973 Q 46.742 78.684 48.776 80.217 L 48.776 80.217 L 48.776 80.217 Q 50.81 81.75 51.243 84.232 L 51.243 84.232 L 51.243 84.232 Q 51.419 85.237 51.378 86.401 L 51.378 86.401 L 51.344 88.295 L 51.344 88.295 Q 51.286 93.543 48.216 97.063 L 48.216 97.063 L 48.216 97.063 Q 45.146 100.583 38.763 101.698 L 38.763 101.698 L 19.024 105.145 L 19.099 61.282 Z  M 35.315 84.394 L 35.315 84.394 L 29.701 85.375 L 29.707 93.778 L 35.321 92.798 L 35.321 92.798 Q 35.439 92.777 35.557 92.757 L 35.557 92.757 L 35.557 92.757 Q 38.276 92.282 39.65 90.733 L 39.65 90.733 L 39.65 90.733 Q 41.024 89.183 40.704 87.351 L 40.704 87.351 L 40.704 87.351 Q 40.043 83.569 35.315 84.394 Z  M 34.125 68.159 L 34.125 68.159 L 29.692 68.933 L 29.693 78.007 L 34.067 77.243 L 34.067 77.243 Q 39.74 76.253 38.873 71.288 L 38.873 71.288 L 38.873 71.288 Q 38.574 69.574 37.354 68.691 L 37.354 68.691 L 37.354 68.691 Q 36.134 67.808 34.125 68.159 Z " fill-rule="evenodd" fill="rgb(255,255,255)"/><path d=" M 21 114 L 51.736 108 L 64 115 L 65 104 L 79 101" fill="none" vector-effect="non-scaling-stroke" stroke-width="5" stroke="rgb(255,255,255)" stroke-linejoin="bevel" stroke-linecap="round" stroke-miterlimit="3"/></g></svg>